<svg width="16" height="14" viewBox="0 0 16 14" fill="none" xmlns="http://www.w3.org/2000/svg">
<path d="M2.65331 4.482C2.02961 5.21812 1.56518 6.07547 1.28931 7C2.15064 9.892 4.82931 12 7.99997 12C8.66197 12 9.30197 11.908 9.90864 11.7367M4.15197 3.152C5.29372 2.39854 6.63202 1.99788 7.99997 2C11.1706 2 13.8486 4.108 14.71 6.99867C14.2379 8.5782 13.2246 9.94102 11.848 10.848M4.15197 3.152L1.99997 1M4.15197 3.152L6.58531 5.58533M11.848 10.848L14 13M11.848 10.848L9.41464 8.41467C9.60037 8.22893 9.7477 8.00844 9.84822 7.76577C9.94874 7.52309 10.0005 7.263 10.0005 7.00033C10.0005 6.73767 9.94874 6.47757 9.84822 6.2349C9.7477 5.99223 9.60037 5.77173 9.41464 5.586C9.22891 5.40027 9.00841 5.25294 8.76574 5.15242C8.52307 5.0519 8.26297 5.00016 8.00031 5.00016C7.73764 5.00016 7.47755 5.0519 7.23487 5.15242C6.9922 5.25294 6.77171 5.40027 6.58597 5.586M9.41397 8.414L6.58664 5.58667" stroke="#407BFF" stroke-linecap="round" stroke-linejoin="round"/>
</svg>
